<svg data-v-fde0c5aa="" xmlns="http://www.w3.org/2000/svg" viewBox="0 0 300 300" class="iconAbove"><!----><defs data-v-fde0c5aa=""><!----></defs><rect data-v-fde0c5aa="" fill="transparent" x="0" y="0" width="300px" height="300px" class="logo-background-square"></rect><defs data-v-fde0c5aa=""><!----></defs><g data-v-fde0c5aa="" id="b5c99f48-d080-450f-a26c-1757252bd8f2" fill="#000000" transform="matrix(3.017291464834927,0,0,3.017291464834927,17.58616679216314,169.30404951793238)"><path d="M8.88 12.15L8.88 8.72L9.32 8.72L9.32 12.35L9.32 12.35Q8.68 12.96 7.79 13.29L7.79 13.29L7.79 13.29Q6.90 13.61 5.89 13.61L5.89 13.61L5.89 13.61Q4.45 13.61 3.29 12.96L3.29 12.96L3.29 12.96Q2.13 12.32 1.46 11.19L1.46 11.19L1.46 11.19Q0.80 10.05 0.80 8.65L0.80 8.65L0.80 8.65Q0.80 7.25 1.46 6.12L1.46 6.12L1.46 6.12Q2.13 4.98 3.29 4.34L3.29 4.34L3.29 4.34Q4.45 3.70 5.89 3.70L5.89 3.70L5.89 3.70Q6.94 3.70 7.83 4.02L7.83 4.02L7.83 4.02Q8.71 4.34 9.34 4.98L9.34 4.98L9.06 5.31L9.06 5.31Q7.84 4.13 5.91 4.13L5.91 4.13L5.91 4.13Q4.59 4.13 3.54 4.72L3.54 4.72L3.54 4.72Q2.48 5.32 1.88 6.36L1.88 6.36L1.88 6.36Q1.27 7.39 1.27 8.65L1.27 8.65L1.27 8.65Q1.27 9.91 1.88 10.95L1.88 10.95L1.88 10.95Q2.48 11.98 3.54 12.58L3.54 12.58L3.54 12.58Q4.59 13.17 5.91 13.17L5.91 13.17L5.91 13.17Q7.74 13.17 8.88 12.15L8.88 12.15ZM18.38 9.86L18.38 9.98L12.01 9.98L12.01 9.98Q12.03 10.91 12.45 11.63L12.45 11.63L12.45 11.63Q12.87 12.36 13.60 12.77L13.60 12.77L13.60 12.77Q14.34 13.17 15.25 13.17L15.25 13.17L15.25 13.17Q15.99 13.17 16.62 12.90L16.62 12.90L16.62 12.90Q17.25 12.63 17.65 12.10L17.65 12.10L17.95 12.40L17.95 12.40Q17.46 12.98 16.76 13.29L16.76 13.29L16.76 13.29Q16.06 13.59 15.25 13.59L15.25 13.59L15.25 13.59Q14.18 13.59 13.35 13.13L13.35 13.13L13.35 13.13Q12.52 12.66 12.04 11.82L12.04 11.82L12.04 11.82Q11.56 10.98 11.56 9.91L11.56 9.91L11.56 9.91Q11.56 8.85 12.01 8.01L12.01 8.01L12.01 8.01Q12.45 7.17 13.23 6.70L13.23 6.70L13.23 6.70Q14.01 6.23 14.98 6.23L14.98 6.23L14.98 6.23Q15.93 6.23 16.71 6.69L16.71 6.69L16.71 6.69Q17.49 7.15 17.93 7.98L17.93 7.98L17.93 7.98Q18.38 8.81 18.38 9.86L18.38 9.86ZM14.98 6.65L14.98 6.65Q14.17 6.65 13.51 7.03L13.51 7.03L13.51 7.03Q12.85 7.41 12.46 8.08L12.46 8.08L12.46 8.08Q12.07 8.76 12.03 9.60L12.03 9.60L17.95 9.60L17.95 9.60Q17.89 8.76 17.49 8.08L17.49 8.08L17.49 8.08Q17.09 7.41 16.44 7.03L16.44 7.03L16.44 7.03Q15.79 6.65 14.98 6.65L14.98 6.65ZM23.41 13.59L23.41 13.59Q22.40 13.59 21.58 13.13L21.58 13.13L21.58 13.13Q20.76 12.66 20.30 11.82L20.30 11.82L20.30 11.82Q19.84 10.98 19.84 9.91L19.84 9.91L19.84 9.91Q19.84 8.85 20.30 8.01L20.30 8.01L20.30 8.01Q20.76 7.17 21.58 6.70L21.58 6.70L21.58 6.70Q22.40 6.23 23.41 6.23L23.41 6.23L23.41 6.23Q24.43 6.23 25.24 6.70L25.24 6.70L25.24 6.70Q26.05 7.17 26.52 8.01L26.52 8.01L26.52 8.01Q26.98 8.85 26.98 9.91L26.98 9.91L26.98 9.91Q26.98 10.98 26.52 11.82L26.52 11.82L26.52 11.82Q26.05 12.66 25.24 13.13L25.24 13.13L25.24 13.13Q24.43 13.59 23.41 13.59L23.41 13.59ZM23.41 13.17L23.41 13.17Q24.29 13.17 25.00 12.76L25.00 12.76L25.00 12.76Q25.70 12.35 26.11 11.61L26.11 11.61L26.11 11.61Q26.52 10.86 26.52 9.91L26.52 9.91L26.52 9.91Q26.52 8.96 26.11 8.22L26.11 8.22L26.11 8.22Q25.70 7.49 25.00 7.08L25.00 7.08L25.00 7.08Q24.29 6.66 23.41 6.66L23.41 6.66L23.41 6.66Q22.53 6.66 21.82 7.08L21.82 7.08L21.82 7.08Q21.11 7.49 20.71 8.22L20.71 8.22L20.71 8.22Q20.30 8.96 20.30 9.91L20.30 9.91L20.30 9.91Q20.30 10.86 20.71 11.61L20.71 11.61L20.71 11.61Q21.11 12.35 21.82 12.76L21.82 12.76L21.82 12.76Q22.53 13.17 23.41 13.17L23.41 13.17ZM29.71 8.04L29.71 8.04Q30.03 7.17 30.75 6.70L30.75 6.70L30.75 6.70Q31.47 6.23 32.54 6.23L32.54 6.23L32.54 6.69L32.41 6.69L32.41 6.69Q31.15 6.69 30.44 7.49L30.44 7.49L30.44 7.49Q29.72 8.29 29.72 9.69L29.72 9.69L29.72 13.55L29.26 13.55L29.26 6.29L29.71 6.29L29.71 8.04ZM40.64 6.29L41.09 6.29L41.09 12.85L41.09 12.85Q41.09 14.62 40.24 15.46L40.24 15.46L40.24 15.46Q39.38 16.31 37.66 16.31L37.66 16.31L37.66 16.31Q36.65 16.31 35.78 16.00L35.78 16.00L35.78 16.00Q34.92 15.69 34.40 15.13L34.40 15.13L34.66 14.78L34.66 14.78Q35.22 15.32 35.99 15.60L35.99 15.60L35.99 15.60Q36.75 15.89 37.65 15.89L37.65 15.89L37.65 15.89Q39.17 15.89 39.90 15.17L39.90 15.17L39.90 15.17Q40.63 14.45 40.63 12.91L40.63 12.91L40.63 11.37L40.63 11.37Q40.22 12.26 39.38 12.78L39.38 12.78L39.38 12.78Q38.54 13.30 37.46 13.30L37.46 13.30L37.46 13.30Q36.44 13.30 35.62 12.84L35.62 12.84L35.62 12.84Q34.80 12.39 34.34 11.58L34.34 11.58L34.34 11.58Q33.87 10.78 33.87 9.76L33.87 9.76L33.87 9.76Q33.87 8.74 34.34 7.93L34.34 7.93L34.34 7.93Q34.80 7.13 35.62 6.68L35.62 6.68L35.62 6.68Q36.44 6.23 37.46 6.23L37.46 6.23L37.46 6.23Q38.54 6.23 39.39 6.75L39.39 6.75L39.39 6.75Q40.24 7.27 40.64 8.18L40.64 8.18L40.64 6.29ZM37.48 12.88L37.48 12.88Q38.37 12.88 39.09 12.48L39.09 12.48L39.09 12.48Q39.82 12.08 40.23 11.37L40.23 11.37L40.23 11.37Q40.64 10.65 40.64 9.76L40.64 9.76L40.64 9.76Q40.64 8.86 40.23 8.15L40.23 8.15L40.23 8.15Q39.82 7.45 39.09 7.06L39.09 7.06L39.09 7.06Q38.37 6.66 37.48 6.66L37.48 6.66L37.48 6.66Q36.58 6.66 35.86 7.06L35.86 7.06L35.86 7.06Q35.14 7.45 34.73 8.15L34.73 8.15L34.73 8.15Q34.33 8.86 34.33 9.76L34.33 9.76L34.33 9.76Q34.33 10.67 34.73 11.38L34.73 11.38L34.73 11.38Q35.14 12.08 35.86 12.48L35.86 12.48L35.86 12.48Q36.58 12.88 37.48 12.88L37.48 12.88ZM50.19 9.86L50.19 9.98L43.82 9.98L43.82 9.98Q43.83 10.91 44.25 11.63L44.25 11.63L44.25 11.63Q44.67 12.36 45.41 12.77L45.41 12.77L45.41 12.77Q46.14 13.17 47.05 13.17L47.05 13.17L47.05 13.17Q47.80 13.17 48.43 12.90L48.43 12.90L48.43 12.90Q49.06 12.63 49.46 12.10L49.46 12.10L49.76 12.40L49.76 12.40Q49.27 12.98 48.57 13.29L48.57 13.29L48.57 13.29Q47.87 13.59 47.05 13.59L47.05 13.59L47.05 13.59Q45.99 13.59 45.16 13.13L45.16 13.13L45.16 13.13Q44.32 12.66 43.85 11.82L43.85 11.82L43.85 11.82Q43.37 10.98 43.37 9.91L43.37 9.91L43.37 9.91Q43.37 8.85 43.81 8.01L43.81 8.01L43.81 8.01Q44.25 7.17 45.04 6.70L45.04 6.70L45.04 6.70Q45.82 6.23 46.79 6.23L46.79 6.23L46.79 6.23Q47.74 6.23 48.52 6.69L48.52 6.69L48.52 6.69Q49.29 7.15 49.74 7.98L49.74 7.98L49.74 7.98Q50.19 8.81 50.19 9.86L50.19 9.86ZM46.79 6.65L46.79 6.65Q45.98 6.65 45.32 7.03L45.32 7.03L45.32 7.03Q44.66 7.41 44.27 8.08L44.27 8.08L44.27 8.08Q43.88 8.76 43.83 9.60L43.83 9.60L49.76 9.60L49.76 9.60Q49.70 8.76 49.30 8.08L49.30 8.08L49.30 8.08Q48.90 7.41 48.25 7.03L48.25 7.03L48.25 7.03Q47.60 6.65 46.79 6.65L46.79 6.65ZM58.73 13.61L58.73 13.61Q57.67 13.61 56.71 13.23L56.71 13.23L56.71 13.23Q55.75 12.85 55.23 12.25L55.23 12.25L55.48 11.91L55.48 11.91Q55.97 12.47 56.85 12.83L56.85 12.83L56.85 12.83Q57.72 13.19 58.72 13.19L58.72 13.19L58.72 13.19Q60.19 13.19 60.94 12.61L60.94 12.61L60.94 12.61Q61.68 12.03 61.68 11.12L61.68 11.12L61.68 11.12Q61.68 10.42 61.29 9.99L61.29 9.99L61.29 9.99Q60.90 9.56 60.33 9.34L60.33 9.34L60.33 9.34Q59.75 9.13 58.76 8.89L58.76 8.89L58.76 8.89Q57.69 8.62 57.05 8.37L57.05 8.37L57.05 8.37Q56.41 8.12 55.96 7.60L55.96 7.60L55.96 7.60Q55.51 7.08 55.51 6.22L55.51 6.22L55.51 6.22Q55.51 5.53 55.87 4.96L55.87 4.96L55.87 4.96Q56.24 4.38 56.99 4.04L56.99 4.04L56.99 4.04Q57.74 3.70 58.86 3.70L58.86 3.70L58.86 3.70Q59.65 3.70 60.43 3.93L60.43 3.93L60.43 3.93Q61.21 4.17 61.75 4.59L61.75 4.59L61.54 4.97L61.54 4.97Q60.97 4.55 60.26 4.33L60.26 4.33L60.26 4.33Q59.56 4.12 58.87 4.12L58.87 4.12L58.87 4.12Q57.44 4.12 56.71 4.71L56.71 4.71L56.71 4.71Q55.97 5.31 55.97 6.22L55.97 6.22L55.97 6.22Q55.97 6.93 56.37 7.36L56.37 7.36L56.37 7.36Q56.77 7.78 57.35 8.01L57.35 8.01L57.35 8.01Q57.93 8.23 58.91 8.47L58.91 8.47L58.91 8.47Q59.98 8.74 60.62 8.98L60.62 8.98L60.62 8.98Q61.26 9.23 61.70 9.74L61.70 9.74L61.70 9.74Q62.15 10.25 62.15 11.10L62.15 11.10L62.15 11.10Q62.15 11.79 61.77 12.36L61.77 12.36L61.77 12.36Q61.40 12.94 60.63 13.27L60.63 13.27L60.63 13.27Q59.86 13.61 58.73 13.61L58.73 13.61ZM66.85 6.23L66.85 6.23Q68.15 6.23 68.84 6.90L68.84 6.90L68.84 6.90Q69.54 7.57 69.54 8.85L69.54 8.85L69.54 13.55L69.09 13.55L69.09 12.10L69.09 12.10Q68.74 12.80 68.05 13.20L68.05 13.20L68.05 13.20Q67.35 13.59 66.39 13.59L66.39 13.59L66.39 13.59Q65.17 13.59 64.48 13.03L64.48 13.03L64.48 13.03Q63.78 12.47 63.78 11.55L63.78 11.55L63.78 11.55Q63.78 10.67 64.41 10.11L64.41 10.11L64.41 10.11Q65.04 9.56 66.43 9.56L66.43 9.56L69.08 9.56L69.08 8.85L69.08 8.85Q69.08 7.77 68.51 7.21L68.51 7.21L68.51 7.21Q67.94 6.65 66.84 6.65L66.84 6.65L66.84 6.65Q66.07 6.65 65.39 6.92L65.39 6.92L65.39 6.92Q64.72 7.18 64.25 7.63L64.25 7.63L63.99 7.29L63.99 7.29Q64.53 6.79 65.27 6.51L65.27 6.51L65.27 6.51Q66.02 6.23 66.85 6.23L66.85 6.23ZM66.42 13.20L66.42 13.20Q68.38 13.20 69.08 11.45L69.08 11.45L69.08 9.94L66.43 9.94L66.43 9.94Q65.30 9.94 64.77 10.37L64.77 10.37L64.77 10.37Q64.25 10.79 64.25 11.52L64.25 11.52L64.25 11.52Q64.25 12.31 64.83 12.75L64.83 12.75L64.83 12.75Q65.41 13.20 66.42 13.20L66.42 13.20ZM74.94 6.23L74.94 6.23Q76.24 6.23 76.94 6.90L76.94 6.90L76.94 6.90Q77.63 7.57 77.63 8.85L77.63 8.85L77.63 13.55L77.18 13.55L77.18 12.10L77.18 12.10Q76.83 12.80 76.14 13.20L76.14 13.20L76.14 13.20Q75.45 13.59 74.48 13.59L74.48 13.59L74.48 13.59Q73.26 13.59 72.57 13.03L72.57 13.03L72.57 13.03Q71.88 12.47 71.88 11.55L71.88 11.55L71.88 11.55Q71.88 10.67 72.51 10.11L72.51 10.11L72.51 10.11Q73.14 9.56 74.52 9.56L74.52 9.56L77.17 9.56L77.17 8.85L77.17 8.85Q77.17 7.77 76.60 7.21L76.60 7.21L76.60 7.21Q76.03 6.65 74.93 6.65L74.93 6.65L74.93 6.65Q74.16 6.65 73.49 6.92L73.49 6.92L73.49 6.92Q72.81 7.18 72.34 7.63L72.34 7.63L72.09 7.29L72.09 7.29Q72.62 6.79 73.37 6.51L73.37 6.51L73.37 6.51Q74.12 6.23 74.94 6.23L74.94 6.23ZM74.51 13.20L74.51 13.20Q76.47 13.20 77.17 11.45L77.17 11.45L77.17 9.94L74.52 9.94L74.52 9.94Q73.39 9.94 72.86 10.37L72.86 10.37L72.86 10.37Q72.34 10.79 72.34 11.52L72.34 11.52L72.34 11.52Q72.34 12.31 72.92 12.75L72.92 12.75L72.92 12.75Q73.50 13.20 74.51 13.20L74.51 13.20ZM86.51 3.16L86.97 3.16L86.97 13.55L86.52 13.55L86.52 11.56L86.52 11.56Q86.11 12.52 85.28 13.05L85.28 13.05L85.28 13.05Q84.45 13.59 83.38 13.59L83.38 13.59L83.38 13.59Q82.39 13.59 81.58 13.13L81.58 13.13L81.58 13.13Q80.77 12.66 80.30 11.82L80.30 11.82L80.30 11.82Q79.83 10.98 79.83 9.91L79.83 9.91L79.83 9.91Q79.83 8.85 80.30 8.01L80.30 8.01L80.30 8.01Q80.77 7.17 81.58 6.70L81.58 6.70L81.58 6.70Q82.39 6.23 83.38 6.23L83.38 6.23L83.38 6.23Q84.43 6.23 85.27 6.76L85.27 6.76L85.27 6.76Q86.10 7.29 86.51 8.23L86.51 8.23L86.51 3.16ZM83.40 13.17L83.40 13.17Q84.28 13.17 84.99 12.76L84.99 12.76L84.99 12.76Q85.69 12.35 86.10 11.61L86.10 11.61L86.10 11.61Q86.51 10.86 86.51 9.91L86.51 9.91L86.51 9.91Q86.51 8.96 86.10 8.22L86.10 8.22L86.10 8.22Q85.69 7.49 84.99 7.08L84.99 7.08L84.99 7.08Q84.28 6.66 83.40 6.66L83.40 6.66L83.40 6.66Q82.52 6.66 81.81 7.08L81.81 7.08L81.81 7.08Q81.10 7.49 80.70 8.22L80.70 8.22L80.70 8.22Q80.29 8.96 80.29 9.91L80.29 9.91L80.29 9.91Q80.29 10.86 80.70 11.61L80.70 11.61L80.70 11.61Q81.10 12.35 81.81 12.76L81.81 12.76L81.81 12.76Q82.52 13.17 83.40 13.17L83.40 13.17Z"></path></g><defs data-v-fde0c5aa=""><linearGradient data-v-fde0c5aa="" gradientTransform="rotate(25)" id="6930008e-4b79-4085-8093-ebe3984eb923" x1="0%" y1="0%" x2="100%" y2="0%"><stop data-v-fde0c5aa="" offset="0%" stop-color="#0076DD" stop-opacity="1"></stop><stop data-v-fde0c5aa="" offset="100%" stop-color="#00CDE9" stop-opacity="1"></stop></linearGradient></defs><g data-v-fde0c5aa="" id="fc9a2618-bbd2-46ce-beae-34de989e5906" stroke="none" fill="url(#6930008e-4b79-4085-8093-ebe3984eb923)" transform="matrix(6.612896935262324,0,0,6.612896935262324,97.09682451790141,68.25813371211444)"><path d="M7.969 2L6 13.844 5.969 14h2.063l1.969-11.844.031-.156H7.969zM5 3.813l-.531.344-4 2.5L0 6.938v2.126l.469.281 4 2.5.531.344V9.814L2.094 8.001 5 6.188V3.813zm6 0v2.375l2.906 1.813L11 9.814v2.375l.531-.344 4-2.5.469-.281V6.938l-.469-.281-4-2.5L11 3.813z"></path></g><!----></svg>