<svg data-v-fde0c5aa="" xmlns="http://www.w3.org/2000/svg" viewBox="0 0 300 300" class="icon"><!----><defs data-v-fde0c5aa=""><!----></defs><rect data-v-fde0c5aa="" fill="transparent" x="0" y="0" width="300px" height="300px" class="logo-background-square"></rect><!----><defs data-v-fde0c5aa=""><linearGradient data-v-fde0c5aa="" gradientTransform="rotate(25)" id="29dce50c-854f-4875-84aa-c314d035ddb9" x1="0%" y1="0%" x2="100%" y2="0%"><stop data-v-fde0c5aa="" offset="0%" stop-color="#0076DD" stop-opacity="1"></stop><stop data-v-fde0c5aa="" offset="100%" stop-color="#00CDE9" stop-opacity="1"></stop></linearGradient></defs><g data-v-fde0c5aa="" id="e25045fa-5709-4ff4-83f0-c05d13e2b493" fill="url(#29dce50c-854f-4875-84aa-c314d035ddb9)" stroke="none" transform="matrix(13.75,0,0,13.75,40,40)"><path d="M7.969 2L6 13.844 5.969 14h2.063l1.969-11.844.031-.156H7.969zM5 3.813l-.531.344-4 2.5L0 6.938v2.126l.469.281 4 2.5.531.344V9.814L2.094 8.001 5 6.188V3.813zm6 0v2.375l2.906 1.813L11 9.814v2.375l.531-.344 4-2.5.469-.281V6.938l-.469-.281-4-2.5L11 3.813z"></path></g><!----></svg>